<mxfile host="65bd71144e">
    <diagram id="han-foouiPR4Ge5dEa0N" name="Page-1">
        <mxGraphModel dx="1108" dy="706" grid="1" gridSize="10" guides="1" tooltips="1" connect="1" arrows="1" fold="1" page="1" pageScale="1" pageWidth="850" pageHeight="1100" math="0" shadow="0">
            <root>
                <mxCell id="0"/>
                <mxCell id="1" parent="0"/>
                <mxCell id="8" value="Tab System" style="rounded=0;whiteSpace=wrap;html=1;" vertex="1" parent="1">
                    <mxGeometry x="200" y="110" width="490" height="220" as="geometry"/>
                </mxCell>
                <mxCell id="2" value="Photon Layout Engine&lt;div&gt;(HTML)&lt;/div&gt;" style="rounded=0;whiteSpace=wrap;html=1;" vertex="1" parent="1">
                    <mxGeometry x="200" y="340" width="170" height="60" as="geometry"/>
                </mxCell>
                <mxCell id="3" value="Photon Security Core" style="rounded=0;whiteSpace=wrap;html=1;" vertex="1" parent="1">
                    <mxGeometry x="200" y="480" width="490" height="60" as="geometry"/>
                </mxCell>
                <mxCell id="4" value="Photon Layout Engine&lt;div&gt;(CSS)&lt;/div&gt;" style="rounded=0;whiteSpace=wrap;html=1;" vertex="1" parent="1">
                    <mxGeometry x="380" y="340" width="110" height="60" as="geometry"/>
                </mxCell>
                <mxCell id="6" value="Gamma Engine&lt;div&gt;(JS)&lt;/div&gt;" style="rounded=0;whiteSpace=wrap;html=1;" vertex="1" parent="1">
                    <mxGeometry x="500" y="340" width="190" height="60" as="geometry"/>
                </mxCell>
                <mxCell id="7" value="Browser Tab Core" style="rounded=0;whiteSpace=wrap;html=1;" vertex="1" parent="1">
                    <mxGeometry x="220" y="230" width="450" height="60" as="geometry"/>
                </mxCell>
                <mxCell id="9" value="Photon Network Core" style="rounded=0;whiteSpace=wrap;html=1;" vertex="1" parent="1">
                    <mxGeometry x="200" y="410" width="490" height="60" as="geometry"/>
                </mxCell>
                <mxCell id="10" value="Photon Layer 0 (Core.hpp)" style="rounded=0;whiteSpace=wrap;html=1;" vertex="1" parent="1">
                    <mxGeometry x="200" y="550" width="490" height="60" as="geometry"/>
                </mxCell>
                <mxCell id="11" value="Page Loading System" style="rounded=0;whiteSpace=wrap;html=1;" vertex="1" parent="1">
                    <mxGeometry x="220" y="160" width="180" height="60" as="geometry"/>
                </mxCell>
            </root>
        </mxGraphModel>
    </diagram>
</mxfile>